<svg xmlns="http://www.w3.org/2000/svg" width="44" height="44" viewBox="0 0 44 44">
  <defs>
    <style>
      .cls-1 {
        fill: #bebebe;
      }

      .cls-2 {
        fill: #fff;
      }
    </style>
  </defs>
  <g id="Twitter-icon" transform="translate(-82 -3174)">
    <circle id="타원_12" data-name="타원 12" class="cls-1" cx="22" cy="22" r="22" transform="translate(82 3174)"/>
    <g id="그룹_29" data-name="그룹 29" transform="translate(90.686 3184.921)">
      <g id="그룹_30" data-name="그룹 30" transform="translate(0.314 0.079)">
        <path id="패스_8" data-name="패스 8" class="cls-2" d="M10.276,22.5c9.812,0,15.177-8.463,15.177-15.8q0-.361-.015-.718A11.11,11.11,0,0,0,28.1,3.1a10.327,10.327,0,0,1-3.063.874A5.539,5.539,0,0,0,27.381.907a10.437,10.437,0,0,1-3.387,1.348A5.233,5.233,0,0,0,20.1.5a5.449,5.449,0,0,0-5.335,5.553A5.75,5.75,0,0,0,14.9,7.32a14.954,14.954,0,0,1-11-5.8,5.711,5.711,0,0,0-.723,2.791A5.614,5.614,0,0,0,5.56,8.932a5.139,5.139,0,0,1-2.416-.695c0,.023,0,.046,0,.071a5.505,5.505,0,0,0,4.28,5.445,5.119,5.119,0,0,1-2.409.1A5.372,5.372,0,0,0,10,17.7a10.439,10.439,0,0,1-7.9,2.3A14.671,14.671,0,0,0,10.276,22.5" transform="translate(-2.099 -0.5)"/>
      </g>
    </g>
  </g>
</svg>
